<svg width="130" height="150" viewBox="0 0 130 150" fill="none" xmlns="http://www.w3.org/2000/svg">
<path fill-rule="evenodd" clip-rule="evenodd" d="M62.3387 34.2382C69.6135 34.2253 76.7298 36.3613 82.7933 40.3778C83.2439 40.6954 83.7537 40.9194 84.2925 41.0365C84.8313 41.1536 85.3881 41.1616 85.93 41.0598C86.4719 40.958 86.9879 40.7486 87.4474 40.444C87.9068 40.1394 88.3005 39.7458 88.605 39.2864C88.9095 38.8271 89.1186 38.3113 89.2201 37.7698C89.3216 37.2282 89.3132 36.6717 89.1956 36.1334C89.078 35.5951 88.8535 35.0859 88.5354 34.6358C88.2173 34.1857 87.8121 33.8041 87.3437 33.5133C80.5101 28.9985 72.5801 26.4182 64.3964 26.0467C56.2127 25.6752 48.0812 27.5263 40.8661 31.4033C33.651 35.2803 27.6219 41.0383 23.4196 48.0653C19.2173 55.0924 16.9989 63.1259 17 71.3121C17 87.8638 20.1545 103.696 25.9029 118.227C26.314 119.229 27.1037 120.029 28.1009 120.454C29.0981 120.878 30.2225 120.893 31.2307 120.495C32.2388 120.097 33.0496 119.319 33.4873 118.328C33.9249 117.337 33.9544 116.214 33.5692 115.201C28.0483 101.225 25.2233 86.3319 25.2434 71.3066C25.2434 61.4754 29.1516 52.047 36.1084 45.0953C43.0651 38.1436 52.5004 34.2382 62.3387 34.2382V34.2382ZM94.4495 45.161C93.9983 45.4602 93.6105 45.8453 93.3083 46.2943C93.0061 46.7432 92.7954 47.2473 92.6882 47.7777C92.581 48.3081 92.5795 48.8544 92.6837 49.3854C92.7879 49.9164 92.9957 50.4216 93.2954 50.8723C97.3118 56.9305 99.4474 64.0395 99.434 71.3066C99.434 80.1646 101.978 88.4404 106.386 95.4313C106.969 96.3561 107.896 97.0117 108.962 97.2537C110.029 97.4957 111.148 97.3044 112.074 96.7218C112.999 96.1392 113.655 95.2131 113.898 94.1472C114.14 93.0812 113.948 91.9628 113.365 91.038C109.638 85.1316 107.666 78.2892 107.677 71.3066C107.677 62.0807 104.913 53.4808 100.165 46.3198C99.8659 45.8684 99.4809 45.4804 99.0318 45.1779C98.5827 44.8754 98.0783 44.6643 97.5475 44.5567C97.0167 44.4491 96.4699 44.4471 95.9383 44.5508C95.4067 44.6545 94.9008 44.8618 94.4495 45.161V45.161ZM62.3387 54.8318C66.7113 54.8318 70.9048 56.5675 73.9966 59.6571C77.0885 62.7468 78.8255 66.9372 78.8255 71.3066C78.8255 88.3306 85.2883 103.855 95.8893 115.547C96.2531 115.948 96.6923 116.273 97.1819 116.505C97.6715 116.736 98.2019 116.869 98.7428 116.895C99.2837 116.922 99.8246 116.842 100.335 116.659C100.844 116.477 101.313 116.196 101.715 115.833C102.525 115.099 103.01 114.073 103.064 112.981C103.118 111.89 102.735 110.821 102 110.012C92.372 99.419 87.0473 85.6165 87.0689 71.3066C87.0689 64.7525 84.4634 58.4668 79.8256 53.8324C75.1878 49.1979 68.8976 46.5943 62.3387 46.5943C55.7798 46.5943 49.4896 49.1979 44.8518 53.8324C40.214 58.4668 37.6085 64.7525 37.6085 71.3066C37.6085 74.3105 37.7294 77.2925 37.9767 80.236C38.0663 81.3247 38.5851 82.3332 39.4189 83.0397C40.2527 83.7462 41.3331 84.0928 42.4226 84.0032C43.5121 83.9136 44.5214 83.3952 45.2284 82.5621C45.9354 81.7289 46.2823 80.6492 46.1926 79.5605C45.9673 76.8422 45.8519 74.0909 45.8519 71.3066C45.8519 66.9372 47.5889 62.7468 50.6808 59.6571C53.7726 56.5675 57.9661 54.8318 62.3387 54.8318V54.8318ZM62.3387 67.1879C61.2456 67.1879 60.1972 67.6218 59.4242 68.3942C58.6512 69.1666 58.217 70.2143 58.217 71.3066C58.1856 91.9279 65.5562 111.877 78.9904 127.53C79.7009 128.36 80.7124 128.874 81.8023 128.959C82.8921 129.044 83.9712 128.693 84.802 127.983C85.6327 127.273 86.1472 126.262 86.2323 125.173C86.3173 124.084 85.9659 123.006 85.2553 122.175C73.0982 108.014 66.4291 89.9645 66.4604 71.3066C66.4604 70.2143 66.0261 69.1666 65.2532 68.3942C64.4802 67.6218 63.4318 67.1879 62.3387 67.1879ZM44.5384 95.6509C43.4877 95.9512 42.5993 96.6561 42.0685 97.6107C41.5378 98.5654 41.4082 99.6915 41.7082 100.742C44.8039 111.577 49.5988 121.853 55.9143 131.187C56.2175 131.635 56.6059 132.02 57.0576 132.318C57.5093 132.616 58.0153 132.822 58.5468 132.925C59.0783 133.028 59.6249 133.025 60.1552 132.917C60.6856 132.808 61.1895 132.597 61.638 132.294C62.0865 131.991 62.471 131.603 62.7694 131.151C63.0678 130.7 63.2743 130.194 63.3771 129.663C63.4799 129.132 63.4771 128.586 63.3687 128.056C63.2603 127.526 63.0485 127.022 62.7454 126.574C56.9159 117.961 52.4902 108.478 49.6329 98.4791C49.3324 97.4291 48.627 96.5413 47.6717 96.011C46.7163 95.4806 45.5893 95.3511 44.5384 95.6509V95.6509Z" fill="#F7B900"/>
<path d="M26.5 45C36.165 45 44 37.165 44 27.5C44 17.835 36.165 10 26.5 10C16.835 10 9 17.835 9 27.5C9 37.165 16.835 45 26.5 45Z" fill="#F7B900"/>
<path d="M26.5 46C36.7173 46 45 37.7173 45 27.5C45 17.2827 36.7173 9 26.5 9C16.2827 9 8 17.2827 8 27.5C8 37.7173 16.2827 46 26.5 46Z" stroke="white" stroke-width="2"/>
<path d="M22.7103 34.204C21.7243 34.204 20.8459 33.9603 20.0753 33.473C19.3046 32.9857 18.6983 32.283 18.2563 31.365C17.8256 30.4357 17.6103 29.3307 17.6103 28.05C17.6103 26.7693 17.8256 25.67 18.2563 24.752C18.6983 23.8227 19.3046 23.1143 20.0753 22.627C20.8459 22.1397 21.7243 21.896 22.7103 21.896C23.6963 21.896 24.5746 22.1397 25.3453 22.627C26.1159 23.1143 26.7166 23.8227 27.1473 24.752C27.5893 25.67 27.8103 26.7693 27.8103 28.05C27.8103 29.3307 27.5893 30.4357 27.1473 31.365C26.7166 32.283 26.1159 32.9857 25.3453 33.473C24.5746 33.9603 23.6963 34.204 22.7103 34.204ZM22.7103 31.875C23.4356 31.875 24.0023 31.5633 24.4103 30.94C24.8296 30.3167 25.0393 29.3533 25.0393 28.05C25.0393 26.7467 24.8296 25.7833 24.4103 25.16C24.0023 24.5367 23.4356 24.225 22.7103 24.225C21.9963 24.225 21.4296 24.5367 21.0103 25.16C20.6023 25.7833 20.3983 26.7467 20.3983 28.05C20.3983 29.3533 20.6023 30.3167 21.0103 30.94C21.4296 31.5633 21.9963 31.875 22.7103 31.875ZM33.6387 22.1V34H30.8847V24.31H28.5047V22.1H33.6387Z" fill="white"/>
</svg>
