<svg width="130" height="150" viewBox="0 0 130 150" fill="none" xmlns="http://www.w3.org/2000/svg">
<path d="M26.5 45C36.165 45 44 37.165 44 27.5C44 17.835 36.165 10 26.5 10C16.835 10 9 17.835 9 27.5C9 37.165 16.835 45 26.5 45Z" fill="#FF2222"/>
<path d="M26.5 46C36.7173 46 45 37.7173 45 27.5C45 17.2827 36.7173 9 26.5 9C16.2827 9 8 17.2827 8 27.5C8 37.7173 16.2827 46 26.5 46Z" stroke="white" stroke-width="2"/>
<path d="M21.0443 34.204C20.0583 34.204 19.1799 33.9603 18.4093 33.473C17.6386 32.9857 17.0323 32.283 16.5903 31.365C16.1596 30.4357 15.9443 29.3307 15.9443 28.05C15.9443 26.7693 16.1596 25.67 16.5903 24.752C17.0323 23.8227 17.6386 23.1143 18.4093 22.627C19.1799 22.1397 20.0583 21.896 21.0443 21.896C22.0303 21.896 22.9086 22.1397 23.6793 22.627C24.4499 23.1143 25.0506 23.8227 25.4813 24.752C25.9233 25.67 26.1443 26.7693 26.1443 28.05C26.1443 29.3307 25.9233 30.4357 25.4813 31.365C25.0506 32.283 24.4499 32.9857 23.6793 33.473C22.9086 33.9603 22.0303 34.204 21.0443 34.204ZM21.0443 31.875C21.7696 31.875 22.3363 31.5633 22.7443 30.94C23.1636 30.3167 23.3733 29.3533 23.3733 28.05C23.3733 26.7467 23.1636 25.7833 22.7443 25.16C22.3363 24.5367 21.7696 24.225 21.0443 24.225C20.3303 24.225 19.7636 24.5367 19.3443 25.16C18.9363 25.7833 18.7323 26.7467 18.7323 28.05C18.7323 29.3533 18.9363 30.3167 19.3443 30.94C19.7636 31.5633 20.3303 31.875 21.0443 31.875ZM32.8753 26.945C33.918 27.115 34.717 27.506 35.2723 28.118C35.8277 28.7187 36.1053 29.4667 36.1053 30.362C36.1053 31.0533 35.924 31.6937 35.5613 32.283C35.1987 32.861 34.6433 33.3257 33.8953 33.677C33.1587 34.0283 32.252 34.204 31.1753 34.204C30.3367 34.204 29.5093 34.0963 28.6933 33.881C27.8887 33.6543 27.203 33.337 26.6363 32.929L27.7073 30.821C28.1607 31.161 28.682 31.4273 29.2713 31.62C29.872 31.8013 30.484 31.892 31.1073 31.892C31.7987 31.892 32.3427 31.7617 32.7393 31.501C33.136 31.229 33.3343 30.8493 33.3343 30.362C33.3343 29.3873 32.592 28.9 31.1073 28.9H29.8493V27.081L32.2973 24.31H27.2313V22.1H35.5613V23.885L32.8753 26.945Z" fill="white"/>
<path d="M34.8333 133L58.6111 61.6667M70.5 61.6667L79.2978 88.0541M84.9391 104.978L94.2778 133M64.5556 37.8889C62.2042 37.8889 59.9056 38.5862 57.9504 39.8925C55.9953 41.1989 54.4715 43.0557 53.5717 45.2281C52.6718 47.4005 52.4364 49.791 52.8951 52.0972C53.3539 54.4034 54.4862 56.5218 56.1488 58.1845C57.8115 59.8472 59.9299 60.9795 62.2362 61.4382C64.5424 61.897 66.9328 61.6615 69.1052 60.7617C71.2777 59.8618 73.1344 58.338 74.4408 56.3829C75.7472 54.4278 76.4445 52.1292 76.4445 49.7778C76.4445 46.6246 75.1919 43.6007 72.9623 41.3711C70.7327 39.1415 67.7087 37.8889 64.5556 37.8889ZM64.5556 37.8889L64.5556 26M17 79.5C26.0712 97.0658 44.2731 109.222 64.5556 109.222C84.838 109.222 103.034 97.048 112.111 79.5" stroke="#FF2222" stroke-width="10" stroke-linecap="round" stroke-linejoin="round"/>
</svg>
