<svg width="130" height="150" viewBox="0 0 130 150" fill="none" xmlns="http://www.w3.org/2000/svg">
<path d="M26.5 45C36.165 45 44 37.165 44 27.5C44 17.835 36.165 10 26.5 10C16.835 10 9 17.835 9 27.5C9 37.165 16.835 45 26.5 45Z" fill="#2082FF"/>
<path d="M26.5 46C36.7173 46 45 37.7173 45 27.5C45 17.2827 36.7173 9 26.5 9C16.2827 9 8 17.2827 8 27.5C8 37.7173 16.2827 46 26.5 46Z" stroke="white" stroke-width="2"/>
<path d="M20.1351 34.204C19.1491 34.204 18.2707 33.9603 17.5001 33.473C16.7294 32.9857 16.1231 32.283 15.6811 31.365C15.2504 30.4357 15.0351 29.3307 15.0351 28.05C15.0351 26.7693 15.2504 25.67 15.6811 24.752C16.1231 23.8227 16.7294 23.1143 17.5001 22.627C18.2707 22.1397 19.1491 21.896 20.1351 21.896C21.1211 21.896 21.9994 22.1397 22.7701 22.627C23.5407 23.1143 24.1414 23.8227 24.5721 24.752C25.0141 25.67 25.2351 26.7693 25.2351 28.05C25.2351 29.3307 25.0141 30.4357 24.5721 31.365C24.1414 32.283 23.5407 32.9857 22.7701 33.473C21.9994 33.9603 21.1211 34.204 20.1351 34.204ZM20.1351 31.875C20.8604 31.875 21.4271 31.5633 21.8351 30.94C22.2544 30.3167 22.4641 29.3533 22.4641 28.05C22.4641 26.7467 22.2544 25.7833 21.8351 25.16C21.4271 24.5367 20.8604 24.225 20.1351 24.225C19.4211 24.225 18.8544 24.5367 18.4351 25.16C18.0271 25.7833 17.8231 26.7467 17.8231 28.05C17.8231 29.3533 18.0271 30.3167 18.4351 30.94C18.8544 31.5633 19.4211 31.875 20.1351 31.875ZM37.4702 31.501H35.5322V34H32.8462V31.501H26.4372V29.648L32.0472 22.1H34.9372L29.7352 29.257H32.9312V27.03H35.5322V29.257H37.4702V31.501Z" fill="white"/>
<path d="M35.4344 87.4351C29.1445 90.9861 24.0585 96.3346 20.8282 102.795C17.598 109.256 16.3708 116.534 17.3039 123.696C24.4664 124.629 31.7444 123.402 38.2049 120.172C44.6654 116.942 50.014 111.856 53.5649 105.566M17.3039 81.3916C28.08 82.6722 38.112 87.541 45.7855 95.2145C53.459 102.888 58.3278 112.92 59.6084 123.696C64.9504 120.616 69.4188 116.225 72.5913 110.938C75.7637 105.65 77.5354 99.6414 77.739 93.4786C87.8867 89.9088 96.748 83.4101 103.202 74.8042C109.657 66.1984 113.414 55.8719 114 45.1305C114 40.322 112.09 35.7104 108.69 32.3103C105.29 28.9102 100.678 27 95.8695 27C85.1281 27.5857 74.8016 31.3433 66.1958 37.7976C57.5899 44.252 51.0912 53.1133 47.5214 63.261C41.3586 63.4646 35.3495 65.2363 30.0621 68.4087C24.7747 71.5812 20.3836 76.0496 17.3039 81.3916ZM89.826 57.2175C89.826 58.4128 89.4715 59.5813 88.8075 60.5751C88.1434 61.569 87.1995 62.3436 86.0952 62.801C84.9909 63.2584 83.7758 63.3781 82.6034 63.1449C81.4311 62.9117 79.5091 61.4909 79.5091 61.4909C79.5091 61.4909 78.0883 59.5689 77.8551 58.3966C77.6219 57.2242 77.7416 56.0091 78.199 54.9048C78.6564 53.8005 79.431 52.8566 80.4249 52.1925C81.4187 51.5285 82.5872 51.174 83.7825 51.174C85.3853 51.174 86.9225 51.8108 88.0559 52.9441C89.1892 54.0775 89.826 55.6147 89.826 57.2175Z" stroke="#2082FF" stroke-width="10" stroke-linecap="round" stroke-linejoin="round"/>
<circle cx="84.5" cy="56.5" r="2.5" fill="#2082FF"/>
</svg>
