<svg width="130" height="150" viewBox="0 0 130 150" fill="none" xmlns="http://www.w3.org/2000/svg">
<path d="M65.5 37.7778C65.5 34.9193 64.3645 32.178 62.3433 30.1567C60.322 28.1355 57.5807 27 54.7222 27H22.3889C20.9597 27 19.589 27.5678 18.5784 28.5784C17.5678 29.589 17 30.9597 17 32.3889V107.833C17 109.263 17.5678 110.633 18.5784 111.644C19.589 112.654 20.9597 113.222 22.3889 113.222H54.7222C57.5807 113.222 60.322 114.358 62.3433 116.379C64.3645 118.4 65.5 121.142 65.5 124M65.5 37.7778C65.5 34.9193 66.6355 32.178 68.6567 30.1567C70.678 28.1355 73.4193 27 76.2778 27H108.611C110.04 27 111.411 27.5678 112.422 28.5784C113.432 29.589 114 30.9597 114 32.3889V107.833C114 109.263 113.432 110.633 112.422 111.644C111.411 112.654 110.04 113.222 108.611 113.222H76.2778C73.4193 113.222 70.678 114.358 68.6567 116.379C66.6355 118.4 65.5 121.142 65.5 124M65.5 37.7778V124M38.5556 48.5556H43.9444M38.5556 70.1111H43.9444M87.0556 48.5556H92.4444M87.0556 70.1111H92.4444M87.0556 91.6667H92.4444" stroke="#00B447" stroke-width="10" stroke-linecap="round" stroke-linejoin="round"/>
<path d="M26.5 45C36.165 45 44 37.165 44 27.5C44 17.835 36.165 10 26.5 10C16.835 10 9 17.835 9 27.5C9 37.165 16.835 45 26.5 45Z" fill="#00B447"/>
<path d="M26.5 46C36.7173 46 45 37.7173 45 27.5C45 17.2827 36.7173 9 26.5 9C16.2827 9 8 17.2827 8 27.5C8 37.7173 16.2827 46 26.5 46Z" stroke="white" stroke-width="2"/>
<path d="M21.0267 34.204C20.0407 34.204 19.1623 33.9603 18.3917 33.473C17.621 32.9857 17.0147 32.283 16.5727 31.365C16.142 30.4357 15.9267 29.3307 15.9267 28.05C15.9267 26.7693 16.142 25.67 16.5727 24.752C17.0147 23.8227 17.621 23.1143 18.3917 22.627C19.1623 22.1397 20.0407 21.896 21.0267 21.896C22.0127 21.896 22.891 22.1397 23.6617 22.627C24.4323 23.1143 25.033 23.8227 25.4637 24.752C25.9057 25.67 26.1267 26.7693 26.1267 28.05C26.1267 29.3307 25.9057 30.4357 25.4637 31.365C25.033 32.283 24.4323 32.9857 23.6617 33.473C22.891 33.9603 22.0127 34.204 21.0267 34.204ZM21.0267 31.875C21.752 31.875 22.3187 31.5633 22.7267 30.94C23.146 30.3167 23.3557 29.3533 23.3557 28.05C23.3557 26.7467 23.146 25.7833 22.7267 25.16C22.3187 24.5367 21.752 24.225 21.0267 24.225C20.3127 24.225 19.746 24.5367 19.3267 25.16C18.9187 25.7833 18.7147 26.7467 18.7147 28.05C18.7147 29.3533 18.9187 30.3167 19.3267 30.94C19.746 31.5633 20.3127 31.875 21.0267 31.875ZM36.2561 31.756V34H27.2631V32.215L31.8531 27.88C32.3405 27.4153 32.6691 27.0187 32.8391 26.69C33.0091 26.35 33.0941 26.0157 33.0941 25.687C33.0941 25.211 32.9298 24.8483 32.6011 24.599C32.2838 24.3383 31.8135 24.208 31.1901 24.208C30.6688 24.208 30.1985 24.31 29.7791 24.514C29.3598 24.7067 29.0085 25.0013 28.7251 25.398L26.7191 24.106C27.1838 23.4147 27.8241 22.8763 28.6401 22.491C29.4561 22.0943 30.3911 21.896 31.4451 21.896C32.3291 21.896 33.0998 22.0433 33.7571 22.338C34.4258 22.6213 34.9415 23.0293 35.3041 23.562C35.6781 24.0833 35.8651 24.701 35.8651 25.415C35.8651 26.061 35.7291 26.6673 35.4571 27.234C35.1851 27.8007 34.6581 28.4467 33.8761 29.172L31.1391 31.756H36.2561Z" fill="white"/>
</svg>
