<svg xmlns="http://www.w3.org/2000/svg" width="222" height="64.357" viewBox="0 0 222 64.357">
    <g id="Grupo_315" data-name="Grupo 315" transform="translate(-869 -21.974)">
    <g id="Grupo_213" data-name="Grupo 213" transform="translate(869 21.974)">
        <g id="Grupo_209" data-name="Grupo 209" transform="translate(0 32.876)">
        <rect id="Rectángulo_134" data-name="Rectángulo 134" width="221.996" height="31.48" fill="#2082ff"/>
        <g id="Grupo_208" data-name="Grupo 208" transform="translate(5.643 4.398)">
            <path id="Trazado_170" data-name="Trazado 170" d="M527.622,396.751a6.564,6.564,0,1,0,6.468,6.562A6.3,6.3,0,0,0,527.622,396.751Zm4.619,6.562a4.626,4.626,0,1,1-4.619-4.853A4.536,4.536,0,0,1,532.241,403.313Z" transform="translate(-521.154 -391.665)" fill="#fff"/>
            <path id="Trazado_171" data-name="Trazado 171" d="M536.83,403.656c0,2.746-1.6,4.453-4.176,4.453-2.435,0-3.724-1.351-3.724-3.911v-7.41H527.1v7.5c0,3.46,2.041,5.527,5.457,5.527a5.327,5.327,0,0,0,4.313-1.914v1.818h1.779V396.788H536.83Z" transform="translate(-511.672 -391.606)" fill="#fff"/>
            <path id="Trazado_172" data-name="Trazado 172" d="M540.045,409.206a2.5,2.5,0,0,1-1.691.6c-1.3,0-1.958-.713-1.958-2.122V400.1H540.3v-1.66H536.4v-2.684H534.57v2.684h-2.259v1.66h2.259v7.7a3.369,3.369,0,0,0,3.665,3.667,4,4,0,0,0,2.744-.965l.187-.176-.827-1.385Z" transform="translate(-503.375 -393.255)" fill="#fff"/>
            <path id="Trazado_173" data-name="Trazado 173" d="M541.637,402.542c-2.145-.407-3.447-.755-3.447-2.124,0-1.261,1.146-1.984,3.138-1.984a5.981,5.981,0,0,1,3.506,1.045l.29.213.864-1.5-.228-.174a7.9,7.9,0,0,0-4.409-1.266c-3.029,0-4.987,1.45-4.987,3.691,0,2.861,2.656,3.359,4.793,3.755,2.085.389,3.354.718,3.354,2.013,0,1.318-1.11,1.984-3.3,1.984a6.816,6.816,0,0,1-4.215-1.411l-.3-.252-.866,1.509.189.174a8.09,8.09,0,0,0,5.143,1.663c3.19,0,5.172-1.414,5.172-3.691C546.337,403.437,543.842,402.963,541.637,402.542Z" transform="translate(-497.762 -391.665)" fill="#fff"/>
            <rect id="Rectángulo_135" data-name="Rectángulo 135" width="1.826" height="12.935" transform="translate(50.861 5.182)" fill="#fff"/>
            <path id="Trazado_174" data-name="Trazado 174" d="M541.908,394.9a1.277,1.277,0,1,0,0,2.555,1.277,1.277,0,1,0,0-2.555Z" transform="translate(-490.135 -394.616)" fill="#fff"/>
            <path id="Trazado_175" data-name="Trazado 175" d="M553.567,402.057a5.839,5.839,0,0,0-4.692-2.181,6.565,6.565,0,0,0,0,13.126,5.815,5.815,0,0,0,4.718-2.2v2.1h1.8V394.79h-1.826Zm0,4.38a4.626,4.626,0,1,1-4.617-4.853A4.536,4.536,0,0,1,553.567,406.438Z" transform="translate(-487.171 -394.79)" fill="#fff"/>
            <path id="Trazado_176" data-name="Trazado 176" d="M554.675,396.751c-3.6,0-6.209,2.759-6.209,6.562a6.325,6.325,0,0,0,6.658,6.564,6.228,6.228,0,0,0,4.886-2.119l.174-.213-1.113-1.276-.244.3a4.943,4.943,0,0,1-8.535-2.648h10.546V403.6a1.323,1.323,0,0,1,.01-.148,1.591,1.591,0,0,0,.013-.179C560.861,399.492,558.259,396.751,554.675,396.751Zm-4.349,5.6a4.375,4.375,0,0,1,8.7,0Z" transform="translate(-477.631 -391.665)" fill="#fff"/>
            <path id="Trazado_177" data-name="Trazado 177" d="M563.408,409.206a2.485,2.485,0,0,1-1.688.6c-1.3,0-1.958-.713-1.958-2.122V400.1h3.908v-1.66h-3.908v-2.684h-1.826v2.684h-2.259v1.66h2.259v7.7a3.369,3.369,0,0,0,3.665,3.667,4.01,4.01,0,0,0,2.747-.965l.184-.179-.83-1.382Z" transform="translate(-466.14 -393.255)" fill="#fff"/>
            <path id="Trazado_178" data-name="Trazado 178" d="M566.258,399.876a5.607,5.607,0,0,0-4.5,1.9V394.79h-1.826v18.116h1.826v-6.868a4.078,4.078,0,0,1,4.336-4.453c2.355,0,3.652,1.388,3.652,3.911v7.41h1.826v-7.5C571.572,401.943,569.585,399.876,566.258,399.876Z" transform="translate(-459.359 -394.79)" fill="#fff"/>
            <path id="Trazado_179" data-name="Trazado 179" d="M571.6,396.751c-3.6,0-6.209,2.759-6.209,6.562a6.325,6.325,0,0,0,6.658,6.564,6.167,6.167,0,0,0,4.886-2.119l.174-.21-1.115-1.279-.241.3a4.943,4.943,0,0,1-8.535-2.648h10.545V403.6a1.352,1.352,0,0,1,.01-.148,1.535,1.535,0,0,0,.013-.179C577.786,399.492,575.184,396.751,571.6,396.751Zm-4.352,5.6a4.376,4.376,0,0,1,8.7,0Z" transform="translate(-450.66 -391.665)" fill="#fff"/>
            <path id="Trazado_180" data-name="Trazado 180" d="M578.457,402.542c-2.145-.407-3.447-.755-3.447-2.124,0-1.261,1.144-1.984,3.138-1.984a5.971,5.971,0,0,1,3.5,1.045l.291.213.864-1.5-.226-.174a7.912,7.912,0,0,0-4.412-1.266c-3.029,0-4.987,1.45-4.987,3.691,0,2.861,2.658,3.359,4.793,3.755,2.088.389,3.353.718,3.353,2.013,0,1.318-1.11,1.984-3.3,1.984a6.809,6.809,0,0,1-4.215-1.411l-.3-.252-.866,1.509.192.174a8.088,8.088,0,0,0,5.141,1.663c3.193,0,5.172-1.414,5.172-3.691C583.154,403.437,580.659,402.963,578.457,402.542Z" transform="translate(-439.092 -391.665)" fill="#fff"/>
            <path id="Trazado_181" data-name="Trazado 181" d="M584.074,396.751a5.9,5.9,0,0,0-4.713,2.21v-2.114h-1.779v17.5h1.826v-6.616a5.838,5.838,0,0,0,4.666,2.145,6.565,6.565,0,0,0,0-13.126Zm4.575,6.562a4.637,4.637,0,1,1-4.642-4.853A4.547,4.547,0,0,1,588.649,403.313Z" transform="translate(-431.233 -391.665)" fill="#fff"/>
            <path id="Trazado_182" data-name="Trazado 182" d="M589.9,399.876a5.614,5.614,0,0,0-4.5,1.9V394.79h-1.826v18.116h1.826v-6.868a4.079,4.079,0,0,1,4.336-4.453c2.391,0,3.657,1.354,3.657,3.911v7.41h1.826v-7.5C595.213,401.943,593.224,399.876,589.9,399.876Z" transform="translate(-421.694 -394.79)" fill="#fff"/>
            <path id="Trazado_183" data-name="Trazado 183" d="M595.241,396.751c-3.6,0-6.212,2.759-6.212,6.562a6.327,6.327,0,0,0,6.658,6.564,6.16,6.16,0,0,0,4.886-2.119l.176-.21-1.115-1.276-.244.3a4.945,4.945,0,0,1-8.538-2.648H601.4V403.6a1.466,1.466,0,0,1,.01-.153c.005-.06.01-.122.01-.174C601.424,399.492,598.822,396.751,595.241,396.751Zm-4.349,5.6a4.374,4.374,0,0,1,8.7,0Z" transform="translate(-412.992 -391.665)" fill="#fff"/>
            <path id="Trazado_184" data-name="Trazado 184" d="M596.605,398.647v-1.8h-1.779v12.934h1.826v-6.725c0-2.879,1.47-4.526,4.03-4.526a.574.574,0,0,1,.1.008,1.555,1.555,0,0,0,.184.016h.324v-1.8h-.324A5.246,5.246,0,0,0,596.605,398.647Z" transform="translate(-403.754 -391.665)" fill="#fff"/>
            <path id="Trazado_185" data-name="Trazado 185" d="M603.83,396.751c-3.6,0-6.212,2.759-6.212,6.562a6.327,6.327,0,0,0,6.658,6.564,6.237,6.237,0,0,0,4.886-2.119l.176-.213-1.12-1.273-.241.3a4.943,4.943,0,0,1-8.535-2.648h10.55V403.6a1.5,1.5,0,0,1,.01-.153c.005-.06.008-.122.008-.174C610.011,399.492,607.412,396.751,603.83,396.751Zm-4.352,5.6a4.374,4.374,0,0,1,8.7,0Z" transform="translate(-399.303 -391.665)" fill="#fff"/>
        </g>
        </g>
        <g id="Grupo_212" data-name="Grupo 212" transform="translate(0.002 0)">
        <g id="Grupo_210" data-name="Grupo 210">
            <path id="Trazado_186" data-name="Trazado 186" d="M525.945,385.568h-6.966v-4.106h18.974v4.106h-6.966v17.667h-5.042Z" transform="translate(-518.979 -378.754)" fill="#fff"/>
            <path id="Trazado_187" data-name="Trazado 187" d="M544.32,394.457v9.581h-4.853V395.2c0-2.708-1.245-3.95-3.392-3.95-2.332,0-4.012,1.432-4.012,4.51v8.273H527.21v-23.08h4.852v8.087a7.356,7.356,0,0,1,5.319-1.989C541.332,387.055,544.32,389.356,544.32,394.457Z" transform="translate(-505.862 -379.557)" fill="#fff"/>
            <path id="Trazado_188" data-name="Trazado 188" d="M535.275,383.126a2.773,2.773,0,0,1,3.016-2.708,2.723,2.723,0,0,1,3.016,2.614,3.029,3.029,0,0,1-6.033.093Zm.589,5.039h4.852V404.9h-4.852Z" transform="translate(-493.01 -380.418)" fill="#fff"/>
            <path id="Trazado_189" data-name="Trazado 189" d="M556.224,390.711v9.581h-4.852v-8.834c0-2.708-1.242-3.95-3.392-3.95-2.332,0-4.01,1.432-4.01,4.51v8.273h-4.855V383.558h4.637v1.958a7.328,7.328,0,0,1,5.535-2.207C553.239,383.309,556.224,385.61,556.224,390.711Z" transform="translate(-486.893 -375.811)" fill="#fff"/>
            <path id="Trazado_190" data-name="Trazado 190" d="M554.592,397.474l-2.332,2.3v4.261h-4.855v-23.08h4.855v13.064l7.091-6.717h5.786l-6.966,7.091,7.589,9.643h-5.88Z" transform="translate(-473.681 -379.557)" fill="#fff"/>
        </g>
        <g id="Grupo_211" data-name="Grupo 211" transform="translate(104.585 7.381)">
            <path id="Trazado_28" data-name="Trazado 28" d="M572.614,390.643a6.655,6.655,0,1,1-6.66-6.647h.005a6.654,6.654,0,0,1,6.655,6.647" transform="translate(-559.304 -382.098)" fill="#2082ff"/>
            <path id="Trazado_29" data-name="Trazado 29" d="M606.141,383.264l-6.829,8.551,6.829,8.548,6.821-8.548Z" transform="translate(-495.549 -383.264)" fill="#f7b900"/>
            <rect id="Rectángulo_7" data-name="Rectángulo 7" width="10.492" height="10.492" transform="translate(26.603 3.304)" fill="#00b447"/>
            <path id="Trazado_30" data-name="Trazado 30" d="M590.405,391.266v-7.659l6.634,3.831,6.632,3.823-6.632,3.833-6.634,3.823Z" transform="translate(-509.743 -382.717)" fill="#f22"/>
            <path id="Trazado_31" data-name="Trazado 31" d="M595.715,388.865h-5.581v-5.581h-5.828v5.581h-5.574v5.83h5.574v5.581h5.828V394.7h5.581Z" transform="translate(-528.344 -383.232)" fill="#fff"/>
        </g>
        </g>
    </g>
    </g>
</svg>
